# concentric capsule disc: R=5 mm N=10 (0.5mm) M=60, 601 verts 1140 tris
v 0.000000 0.000000 0.000000
v 0.500000 0.000000 0.000000
v 0.497261 0.052264 0.000000
v 0.489074 0.103956 0.000000
v 0.475528 0.154508 0.000000
v 0.456773 0.203368 0.000000
v 0.433013 0.250000 0.000000
v 0.404508 0.293893 0.000000
v 0.371572 0.334565 0.000000
v 0.334565 0.371572 0.000000
v 0.293893 0.404508 0.000000
v 0.250000 0.433013 0.000000
v 0.203368 0.456773 0.000000
v 0.154508 0.475528 0.000000
v 0.103956 0.489074 0.000000
v 0.052264 0.497261 0.000000
v 0.000000 0.500000 0.000000
v -0.052264 0.497261 0.000000
v -0.103956 0.489074 0.000000
v -0.154508 0.475528 0.000000
v -0.203368 0.456773 0.000000
v -0.250000 0.433013 0.000000
v -0.293893 0.404508 0.000000
v -0.334565 0.371572 0.000000
v -0.371572 0.334565 0.000000
v -0.404508 0.293893 0.000000
v -0.433013 0.250000 0.000000
v -0.456773 0.203368 0.000000
v -0.475528 0.154508 0.000000
v -0.489074 0.103956 0.000000
v -0.497261 0.052264 0.000000
v -0.500000 0.000000 0.000000
v -0.497261 -0.052264 0.000000
v -0.489074 -0.103956 0.000000
v -0.475528 -0.154508 0.000000
v -0.456773 -0.203368 0.000000
v -0.433013 -0.250000 0.000000
v -0.404508 -0.293893 0.000000
v -0.371572 -0.334565 0.000000
v -0.334565 -0.371572 0.000000
v -0.293893 -0.404508 0.000000
v -0.250000 -0.433013 0.000000
v -0.203368 -0.456773 0.000000
v -0.154508 -0.475528 0.000000
v -0.103956 -0.489074 0.000000
v -0.052264 -0.497261 0.000000
v -0.000000 -0.500000 0.000000
v 0.052264 -0.497261 0.000000
v 0.103956 -0.489074 0.000000
v 0.154508 -0.475528 0.000000
v 0.203368 -0.456773 0.000000
v 0.250000 -0.433013 0.000000
v 0.293893 -0.404508 0.000000
v 0.334565 -0.371572 0.000000
v 0.371572 -0.334565 0.000000
v 0.404508 -0.293893 0.000000
v 0.433013 -0.250000 0.000000
v 0.456773 -0.203368 0.000000
v 0.475528 -0.154508 0.000000
v 0.489074 -0.103956 0.000000
v 0.497261 -0.052264 0.000000
v 1.000000 0.000000 0.000000
v 0.994522 0.104528 0.000000
v 0.978148 0.207912 0.000000
v 0.951057 0.309017 0.000000
v 0.913545 0.406737 0.000000
v 0.866025 0.500000 0.000000
v 0.809017 0.587785 0.000000
v 0.743145 0.669131 0.000000
v 0.669131 0.743145 0.000000
v 0.587785 0.809017 0.000000
v 0.500000 0.866025 0.000000
v 0.406737 0.913545 0.000000
v 0.309017 0.951057 0.000000
v 0.207912 0.978148 0.000000
v 0.104528 0.994522 0.000000
v 0.000000 1.000000 0.000000
v -0.104528 0.994522 0.000000
v -0.207912 0.978148 0.000000
v -0.309017 0.951057 0.000000
v -0.406737 0.913545 0.000000
v -0.500000 0.866025 0.000000
v -0.587785 0.809017 0.000000
v -0.669131 0.743145 0.000000
v -0.743145 0.669131 0.000000
v -0.809017 0.587785 0.000000
v -0.866025 0.500000 0.000000
v -0.913545 0.406737 0.000000
v -0.951057 0.309017 0.000000
v -0.978148 0.207912 0.000000
v -0.994522 0.104528 0.000000
v -1.000000 0.000000 0.000000
v -0.994522 -0.104528 0.000000
v -0.978148 -0.207912 0.000000
v -0.951057 -0.309017 0.000000
v -0.913545 -0.406737 0.000000
v -0.866025 -0.500000 0.000000
v -0.809017 -0.587785 0.000000
v -0.743145 -0.669131 0.000000
v -0.669131 -0.743145 0.000000
v -0.587785 -0.809017 0.000000
v -0.500000 -0.866025 0.000000
v -0.406737 -0.913545 0.000000
v -0.309017 -0.951057 0.000000
v -0.207912 -0.978148 0.000000
v -0.104528 -0.994522 0.000000
v -0.000000 -1.000000 0.000000
v 0.104528 -0.994522 0.000000
v 0.207912 -0.978148 0.000000
v 0.309017 -0.951057 0.000000
v 0.406737 -0.913545 0.000000
v 0.500000 -0.866025 0.000000
v 0.587785 -0.809017 0.000000
v 0.669131 -0.743145 0.000000
v 0.743145 -0.669131 0.000000
v 0.809017 -0.587785 0.000000
v 0.866025 -0.500000 0.000000
v 0.913545 -0.406737 0.000000
v 0.951057 -0.309017 0.000000
v 0.978148 -0.207912 0.000000
v 0.994522 -0.104528 0.000000
v 1.500000 0.000000 0.000000
v 1.491783 0.156793 0.000000
v 1.467221 0.311868 0.000000
v 1.426585 0.463525 0.000000
v 1.370318 0.610105 0.000000
v 1.299038 0.750000 0.000000
v 1.213525 0.881678 0.000000
v 1.114717 1.003696 0.000000
v 1.003696 1.114717 0.000000
v 0.881678 1.213525 0.000000
v 0.750000 1.299038 0.000000
v 0.610105 1.370318 0.000000
v 0.463525 1.426585 0.000000
v 0.311868 1.467221 0.000000
v 0.156793 1.491783 0.000000
v 0.000000 1.500000 0.000000
v -0.156793 1.491783 0.000000
v -0.311868 1.467221 0.000000
v -0.463525 1.426585 0.000000
v -0.610105 1.370318 0.000000
v -0.750000 1.299038 0.000000
v -0.881678 1.213525 0.000000
v -1.003696 1.114717 0.000000
v -1.114717 1.003696 0.000000
v -1.213525 0.881678 0.000000
v -1.299038 0.750000 0.000000
v -1.370318 0.610105 0.000000
v -1.426585 0.463525 0.000000
v -1.467221 0.311868 0.000000
v -1.491783 0.156793 0.000000
v -1.500000 0.000000 0.000000
v -1.491783 -0.156793 0.000000
v -1.467221 -0.311868 0.000000
v -1.426585 -0.463525 0.000000
v -1.370318 -0.610105 0.000000
v -1.299038 -0.750000 0.000000
v -1.213525 -0.881678 0.000000
v -1.114717 -1.003696 0.000000
v -1.003696 -1.114717 0.000000
v -0.881678 -1.213525 0.000000
v -0.750000 -1.299038 0.000000
v -0.610105 -1.370318 0.000000
v -0.463525 -1.426585 0.000000
v -0.311868 -1.467221 0.000000
v -0.156793 -1.491783 0.000000
v -0.000000 -1.500000 0.000000
v 0.156793 -1.491783 0.000000
v 0.311868 -1.467221 0.000000
v 0.463525 -1.426585 0.000000
v 0.610105 -1.370318 0.000000
v 0.750000 -1.299038 0.000000
v 0.881678 -1.213525 0.000000
v 1.003696 -1.114717 0.000000
v 1.114717 -1.003696 0.000000
v 1.213525 -0.881678 0.000000
v 1.299038 -0.750000 0.000000
v 1.370318 -0.610105 0.000000
v 1.426585 -0.463525 0.000000
v 1.467221 -0.311868 0.000000
v 1.491783 -0.156793 0.000000
v 2.000000 0.000000 0.000000
v 1.989044 0.209057 0.000000
v 1.956295 0.415823 0.000000
v 1.902113 0.618034 0.000000
v 1.827091 0.813473 0.000000
v 1.732051 1.000000 0.000000
v 1.618034 1.175571 0.000000
v 1.486290 1.338261 0.000000
v 1.338261 1.486290 0.000000
v 1.175571 1.618034 0.000000
v 1.000000 1.732051 0.000000
v 0.813473 1.827091 0.000000
v 0.618034 1.902113 0.000000
v 0.415823 1.956295 0.000000
v 0.209057 1.989044 0.000000
v 0.000000 2.000000 0.000000
v -0.209057 1.989044 0.000000
v -0.415823 1.956295 0.000000
v -0.618034 1.902113 0.000000
v -0.813473 1.827091 0.000000
v -1.000000 1.732051 0.000000
v -1.175571 1.618034 0.000000
v -1.338261 1.486290 0.000000
v -1.486290 1.338261 0.000000
v -1.618034 1.175571 0.000000
v -1.732051 1.000000 0.000000
v -1.827091 0.813473 0.000000
v -1.902113 0.618034 0.000000
v -1.956295 0.415823 0.000000
v -1.989044 0.209057 0.000000
v -2.000000 0.000000 0.000000
v -1.989044 -0.209057 0.000000
v -1.956295 -0.415823 0.000000
v -1.902113 -0.618034 0.000000
v -1.827091 -0.813473 0.000000
v -1.732051 -1.000000 0.000000
v -1.618034 -1.175571 0.000000
v -1.486290 -1.338261 0.000000
v -1.338261 -1.486290 0.000000
v -1.175571 -1.618034 0.000000
v -1.000000 -1.732051 0.000000
v -0.813473 -1.827091 0.000000
v -0.618034 -1.902113 0.000000
v -0.415823 -1.956295 0.000000
v -0.209057 -1.989044 0.000000
v -0.000000 -2.000000 0.000000
v 0.209057 -1.989044 0.000000
v 0.415823 -1.956295 0.000000
v 0.618034 -1.902113 0.000000
v 0.813473 -1.827091 0.000000
v 1.000000 -1.732051 0.000000
v 1.175571 -1.618034 0.000000
v 1.338261 -1.486290 0.000000
v 1.486290 -1.338261 0.000000
v 1.618034 -1.175571 0.000000
v 1.732051 -1.000000 0.000000
v 1.827091 -0.813473 0.000000
v 1.902113 -0.618034 0.000000
v 1.956295 -0.415823 0.000000
v 1.989044 -0.209057 0.000000
v 2.500000 0.000000 0.000000
v 2.486305 0.261321 0.000000
v 2.445369 0.519779 0.000000
v 2.377641 0.772542 0.000000
v 2.283864 1.016842 0.000000
v 2.165064 1.250000 0.000000
v 2.022542 1.469463 0.000000
v 1.857862 1.672827 0.000000
v 1.672827 1.857862 0.000000
v 1.469463 2.022542 0.000000
v 1.250000 2.165064 0.000000
v 1.016842 2.283864 0.000000
v 0.772542 2.377641 0.000000
v 0.519779 2.445369 0.000000
v 0.261321 2.486305 0.000000
v 0.000000 2.500000 0.000000
v -0.261321 2.486305 0.000000
v -0.519779 2.445369 0.000000
v -0.772542 2.377641 0.000000
v -1.016842 2.283864 0.000000
v -1.250000 2.165064 0.000000
v -1.469463 2.022542 0.000000
v -1.672827 1.857862 0.000000
v -1.857862 1.672827 0.000000
v -2.022542 1.469463 0.000000
v -2.165064 1.250000 0.000000
v -2.283864 1.016842 0.000000
v -2.377641 0.772542 0.000000
v -2.445369 0.519779 0.000000
v -2.486305 0.261321 0.000000
v -2.500000 0.000000 0.000000
v -2.486305 -0.261321 0.000000
v -2.445369 -0.519779 0.000000
v -2.377641 -0.772542 0.000000
v -2.283864 -1.016842 0.000000
v -2.165064 -1.250000 0.000000
v -2.022542 -1.469463 0.000000
v -1.857862 -1.672827 0.000000
v -1.672827 -1.857862 0.000000
v -1.469463 -2.022542 0.000000
v -1.250000 -2.165064 0.000000
v -1.016842 -2.283864 0.000000
v -0.772542 -2.377641 0.000000
v -0.519779 -2.445369 0.000000
v -0.261321 -2.486305 0.000000
v -0.000000 -2.500000 0.000000
v 0.261321 -2.486305 0.000000
v 0.519779 -2.445369 0.000000
v 0.772542 -2.377641 0.000000
v 1.016842 -2.283864 0.000000
v 1.250000 -2.165064 0.000000
v 1.469463 -2.022542 0.000000
v 1.672827 -1.857862 0.000000
v 1.857862 -1.672827 0.000000
v 2.022542 -1.469463 0.000000
v 2.165064 -1.250000 0.000000
v 2.283864 -1.016842 0.000000
v 2.377641 -0.772542 0.000000
v 2.445369 -0.519779 0.000000
v 2.486305 -0.261321 0.000000
v 3.000000 0.000000 0.000000
v 2.983566 0.313585 0.000000
v 2.934443 0.623735 0.000000
v 2.853170 0.927051 0.000000
v 2.740636 1.220210 0.000000
v 2.598076 1.500000 0.000000
v 2.427051 1.763356 0.000000
v 2.229434 2.007392 0.000000
v 2.007392 2.229434 0.000000
v 1.763356 2.427051 0.000000
v 1.500000 2.598076 0.000000
v 1.220210 2.740636 0.000000
v 0.927051 2.853170 0.000000
v 0.623735 2.934443 0.000000
v 0.313585 2.983566 0.000000
v 0.000000 3.000000 0.000000
v -0.313585 2.983566 0.000000
v -0.623735 2.934443 0.000000
v -0.927051 2.853170 0.000000
v -1.220210 2.740636 0.000000
v -1.500000 2.598076 0.000000
v -1.763356 2.427051 0.000000
v -2.007392 2.229434 0.000000
v -2.229434 2.007392 0.000000
v -2.427051 1.763356 0.000000
v -2.598076 1.500000 0.000000
v -2.740636 1.220210 0.000000
v -2.853170 0.927051 0.000000
v -2.934443 0.623735 0.000000
v -2.983566 0.313585 0.000000
v -3.000000 0.000000 0.000000
v -2.983566 -0.313585 0.000000
v -2.934443 -0.623735 0.000000
v -2.853170 -0.927051 0.000000
v -2.740636 -1.220210 0.000000
v -2.598076 -1.500000 0.000000
v -2.427051 -1.763356 0.000000
v -2.229434 -2.007392 0.000000
v -2.007392 -2.229434 0.000000
v -1.763356 -2.427051 0.000000
v -1.500000 -2.598076 0.000000
v -1.220210 -2.740636 0.000000
v -0.927051 -2.853170 0.000000
v -0.623735 -2.934443 0.000000
v -0.313585 -2.983566 0.000000
v -0.000000 -3.000000 0.000000
v 0.313585 -2.983566 0.000000
v 0.623735 -2.934443 0.000000
v 0.927051 -2.853170 0.000000
v 1.220210 -2.740636 0.000000
v 1.500000 -2.598076 0.000000
v 1.763356 -2.427051 0.000000
v 2.007392 -2.229434 0.000000
v 2.229434 -2.007392 0.000000
v 2.427051 -1.763356 0.000000
v 2.598076 -1.500000 0.000000
v 2.740636 -1.220210 0.000000
v 2.853170 -0.927051 0.000000
v 2.934443 -0.623735 0.000000
v 2.983566 -0.313585 0.000000
v 3.500000 0.000000 0.000000
v 3.480827 0.365850 0.000000
v 3.423517 0.727691 0.000000
v 3.328698 1.081559 0.000000
v 3.197409 1.423578 0.000000
v 3.031089 1.750000 0.000000
v 2.831559 2.057248 0.000000
v 2.601007 2.341957 0.000000
v 2.341957 2.601007 0.000000
v 2.057248 2.831559 0.000000
v 1.750000 3.031089 0.000000
v 1.423578 3.197409 0.000000
v 1.081559 3.328698 0.000000
v 0.727691 3.423517 0.000000
v 0.365850 3.480827 0.000000
v 0.000000 3.500000 0.000000
v -0.365850 3.480827 0.000000
v -0.727691 3.423517 0.000000
v -1.081559 3.328698 0.000000
v -1.423578 3.197409 0.000000
v -1.750000 3.031089 0.000000
v -2.057248 2.831559 0.000000
v -2.341957 2.601007 0.000000
v -2.601007 2.341957 0.000000
v -2.831559 2.057248 0.000000
v -3.031089 1.750000 0.000000
v -3.197409 1.423578 0.000000
v -3.328698 1.081559 0.000000
v -3.423517 0.727691 0.000000
v -3.480827 0.365850 0.000000
v -3.500000 0.000000 0.000000
v -3.480827 -0.365850 0.000000
v -3.423517 -0.727691 0.000000
v -3.328698 -1.081559 0.000000
v -3.197409 -1.423578 0.000000
v -3.031089 -1.750000 0.000000
v -2.831559 -2.057248 0.000000
v -2.601007 -2.341957 0.000000
v -2.341957 -2.601007 0.000000
v -2.057248 -2.831559 0.000000
v -1.750000 -3.031089 0.000000
v -1.423578 -3.197409 0.000000
v -1.081559 -3.328698 0.000000
v -0.727691 -3.423517 0.000000
v -0.365850 -3.480827 0.000000
v -0.000000 -3.500000 0.000000
v 0.365850 -3.480827 0.000000
v 0.727691 -3.423517 0.000000
v 1.081559 -3.328698 0.000000
v 1.423578 -3.197409 0.000000
v 1.750000 -3.031089 0.000000
v 2.057248 -2.831559 0.000000
v 2.341957 -2.601007 0.000000
v 2.601007 -2.341957 0.000000
v 2.831559 -2.057248 0.000000
v 3.031089 -1.750000 0.000000
v 3.197409 -1.423578 0.000000
v 3.328698 -1.081559 0.000000
v 3.423517 -0.727691 0.000000
v 3.480827 -0.365850 0.000000
v 4.000000 0.000000 0.000000
v 3.978088 0.418114 0.000000
v 3.912590 0.831647 0.000000
v 3.804226 1.236068 0.000000
v 3.654182 1.626947 0.000000
v 3.464102 2.000000 0.000000
v 3.236068 2.351141 0.000000
v 2.972579 2.676522 0.000000
v 2.676522 2.972579 0.000000
v 2.351141 3.236068 0.000000
v 2.000000 3.464102 0.000000
v 1.626947 3.654182 0.000000
v 1.236068 3.804226 0.000000
v 0.831647 3.912590 0.000000
v 0.418114 3.978088 0.000000
v 0.000000 4.000000 0.000000
v -0.418114 3.978088 0.000000
v -0.831647 3.912590 0.000000
v -1.236068 3.804226 0.000000
v -1.626947 3.654182 0.000000
v -2.000000 3.464102 0.000000
v -2.351141 3.236068 0.000000
v -2.676522 2.972579 0.000000
v -2.972579 2.676522 0.000000
v -3.236068 2.351141 0.000000
v -3.464102 2.000000 0.000000
v -3.654182 1.626947 0.000000
v -3.804226 1.236068 0.000000
v -3.912590 0.831647 0.000000
v -3.978088 0.418114 0.000000
v -4.000000 0.000000 0.000000
v -3.978088 -0.418114 0.000000
v -3.912590 -0.831647 0.000000
v -3.804226 -1.236068 0.000000
v -3.654182 -1.626947 0.000000
v -3.464102 -2.000000 0.000000
v -3.236068 -2.351141 0.000000
v -2.972579 -2.676522 0.000000
v -2.676522 -2.972579 0.000000
v -2.351141 -3.236068 0.000000
v -2.000000 -3.464102 0.000000
v -1.626947 -3.654182 0.000000
v -1.236068 -3.804226 0.000000
v -0.831647 -3.912590 0.000000
v -0.418114 -3.978088 0.000000
v -0.000000 -4.000000 0.000000
v 0.418114 -3.978088 0.000000
v 0.831647 -3.912590 0.000000
v 1.236068 -3.804226 0.000000
v 1.626947 -3.654182 0.000000
v 2.000000 -3.464102 0.000000
v 2.351141 -3.236068 0.000000
v 2.676522 -2.972579 0.000000
v 2.972579 -2.676522 0.000000
v 3.236068 -2.351141 0.000000
v 3.464102 -2.000000 0.000000
v 3.654182 -1.626947 0.000000
v 3.804226 -1.236068 0.000000
v 3.912590 -0.831647 0.000000
v 3.978088 -0.418114 0.000000
v 4.500000 0.000000 0.000000
v 4.475349 0.470378 0.000000
v 4.401664 0.935603 0.000000
v 4.279754 1.390576 0.000000
v 4.110955 1.830315 0.000000
v 3.897114 2.250000 0.000000
v 3.640576 2.645034 0.000000
v 3.344152 3.011088 0.000000
v 3.011088 3.344152 0.000000
v 2.645034 3.640576 0.000000
v 2.250000 3.897114 0.000000
v 1.830315 4.110955 0.000000
v 1.390576 4.279754 0.000000
v 0.935603 4.401664 0.000000
v 0.470378 4.475349 0.000000
v 0.000000 4.500000 0.000000
v -0.470378 4.475349 0.000000
v -0.935603 4.401664 0.000000
v -1.390576 4.279754 0.000000
v -1.830315 4.110955 0.000000
v -2.250000 3.897114 0.000000
v -2.645034 3.640576 0.000000
v -3.011088 3.344152 0.000000
v -3.344152 3.011088 0.000000
v -3.640576 2.645034 0.000000
v -3.897114 2.250000 0.000000
v -4.110955 1.830315 0.000000
v -4.279754 1.390576 0.000000
v -4.401664 0.935603 0.000000
v -4.475349 0.470378 0.000000
v -4.500000 0.000000 0.000000
v -4.475349 -0.470378 0.000000
v -4.401664 -0.935603 0.000000
v -4.279754 -1.390576 0.000000
v -4.110955 -1.830315 0.000000
v -3.897114 -2.250000 0.000000
v -3.640576 -2.645034 0.000000
v -3.344152 -3.011088 0.000000
v -3.011088 -3.344152 0.000000
v -2.645034 -3.640576 0.000000
v -2.250000 -3.897114 0.000000
v -1.830315 -4.110955 0.000000
v -1.390576 -4.279754 0.000000
v -0.935603 -4.401664 0.000000
v -0.470378 -4.475349 0.000000
v -0.000000 -4.500000 0.000000
v 0.470378 -4.475349 0.000000
v 0.935603 -4.401664 0.000000
v 1.390576 -4.279754 0.000000
v 1.830315 -4.110955 0.000000
v 2.250000 -3.897114 0.000000
v 2.645034 -3.640576 0.000000
v 3.011088 -3.344152 0.000000
v 3.344152 -3.011088 0.000000
v 3.640576 -2.645034 0.000000
v 3.897114 -2.250000 0.000000
v 4.110955 -1.830315 0.000000
v 4.279754 -1.390576 0.000000
v 4.401664 -0.935603 0.000000
v 4.475349 -0.470378 0.000000
v 5.000000 0.000000 0.000000
v 4.972609 0.522642 0.000000
v 4.890738 1.039558 0.000000
v 4.755283 1.545085 0.000000
v 4.567727 2.033683 0.000000
v 4.330127 2.500000 0.000000
v 4.045085 2.938926 0.000000
v 3.715724 3.345653 0.000000
v 3.345653 3.715724 0.000000
v 2.938926 4.045085 0.000000
v 2.500000 4.330127 0.000000
v 2.033683 4.567727 0.000000
v 1.545085 4.755283 0.000000
v 1.039558 4.890738 0.000000
v 0.522642 4.972609 0.000000
v 0.000000 5.000000 0.000000
v -0.522642 4.972609 0.000000
v -1.039558 4.890738 0.000000
v -1.545085 4.755283 0.000000
v -2.033683 4.567727 0.000000
v -2.500000 4.330127 0.000000
v -2.938926 4.045085 0.000000
v -3.345653 3.715724 0.000000
v -3.715724 3.345653 0.000000
v -4.045085 2.938926 0.000000
v -4.330127 2.500000 0.000000
v -4.567727 2.033683 0.000000
v -4.755283 1.545085 0.000000
v -4.890738 1.039558 0.000000
v -4.972609 0.522642 0.000000
v -5.000000 0.000000 0.000000
v -4.972609 -0.522642 0.000000
v -4.890738 -1.039558 0.000000
v -4.755283 -1.545085 0.000000
v -4.567727 -2.033683 0.000000
v -4.330127 -2.500000 0.000000
v -4.045085 -2.938926 0.000000
v -3.715724 -3.345653 0.000000
v -3.345653 -3.715724 0.000000
v -2.938926 -4.045085 0.000000
v -2.500000 -4.330127 0.000000
v -2.033683 -4.567727 0.000000
v -1.545085 -4.755283 0.000000
v -1.039558 -4.890738 0.000000
v -0.522642 -4.972609 0.000000
v -0.000000 -5.000000 0.000000
v 0.522642 -4.972609 0.000000
v 1.039558 -4.890738 0.000000
v 1.545085 -4.755283 0.000000
v 2.033683 -4.567727 0.000000
v 2.500000 -4.330127 0.000000
v 2.938926 -4.045085 0.000000
v 3.345653 -3.715724 0.000000
v 3.715724 -3.345653 0.000000
v 4.045085 -2.938926 0.000000
v 4.330127 -2.500000 0.000000
v 4.567727 -2.033683 0.000000
v 4.755283 -1.545085 0.000000
v 4.890738 -1.039558 0.000000
v 4.972609 -0.522642 0.000000
f 1 2 3
f 1 3 4
f 1 4 5
f 1 5 6
f 1 6 7
f 1 7 8
f 1 8 9
f 1 9 10
f 1 10 11
f 1 11 12
f 1 12 13
f 1 13 14
f 1 14 15
f 1 15 16
f 1 16 17
f 1 17 18
f 1 18 19
f 1 19 20
f 1 20 21
f 1 21 22
f 1 22 23
f 1 23 24
f 1 24 25
f 1 25 26
f 1 26 27
f 1 27 28
f 1 28 29
f 1 29 30
f 1 30 31
f 1 31 32
f 1 32 33
f 1 33 34
f 1 34 35
f 1 35 36
f 1 36 37
f 1 37 38
f 1 38 39
f 1 39 40
f 1 40 41
f 1 41 42
f 1 42 43
f 1 43 44
f 1 44 45
f 1 45 46
f 1 46 47
f 1 47 48
f 1 48 49
f 1 49 50
f 1 50 51
f 1 51 52
f 1 52 53
f 1 53 54
f 1 54 55
f 1 55 56
f 1 56 57
f 1 57 58
f 1 58 59
f 1 59 60
f 1 60 61
f 1 61 2
f 2 62 63
f 2 63 3
f 3 63 64
f 3 64 4
f 4 64 65
f 4 65 5
f 5 65 66
f 5 66 6
f 6 66 67
f 6 67 7
f 7 67 68
f 7 68 8
f 8 68 69
f 8 69 9
f 9 69 70
f 9 70 10
f 10 70 71
f 10 71 11
f 11 71 72
f 11 72 12
f 12 72 73
f 12 73 13
f 13 73 74
f 13 74 14
f 14 74 75
f 14 75 15
f 15 75 76
f 15 76 16
f 16 76 77
f 16 77 17
f 17 77 78
f 17 78 18
f 18 78 79
f 18 79 19
f 19 79 80
f 19 80 20
f 20 80 81
f 20 81 21
f 21 81 82
f 21 82 22
f 22 82 83
f 22 83 23
f 23 83 84
f 23 84 24
f 24 84 85
f 24 85 25
f 25 85 86
f 25 86 26
f 26 86 87
f 26 87 27
f 27 87 88
f 27 88 28
f 28 88 89
f 28 89 29
f 29 89 90
f 29 90 30
f 30 90 91
f 30 91 31
f 31 91 92
f 31 92 32
f 32 92 93
f 32 93 33
f 33 93 94
f 33 94 34
f 34 94 95
f 34 95 35
f 35 95 96
f 35 96 36
f 36 96 97
f 36 97 37
f 37 97 98
f 37 98 38
f 38 98 99
f 38 99 39
f 39 99 100
f 39 100 40
f 40 100 101
f 40 101 41
f 41 101 102
f 41 102 42
f 42 102 103
f 42 103 43
f 43 103 104
f 43 104 44
f 44 104 105
f 44 105 45
f 45 105 106
f 45 106 46
f 46 106 107
f 46 107 47
f 47 107 108
f 47 108 48
f 48 108 109
f 48 109 49
f 49 109 110
f 49 110 50
f 50 110 111
f 50 111 51
f 51 111 112
f 51 112 52
f 52 112 113
f 52 113 53
f 53 113 114
f 53 114 54
f 54 114 115
f 54 115 55
f 55 115 116
f 55 116 56
f 56 116 117
f 56 117 57
f 57 117 118
f 57 118 58
f 58 118 119
f 58 119 59
f 59 119 120
f 59 120 60
f 60 120 121
f 60 121 61
f 61 121 62
f 61 62 2
f 62 122 123
f 62 123 63
f 63 123 124
f 63 124 64
f 64 124 125
f 64 125 65
f 65 125 126
f 65 126 66
f 66 126 127
f 66 127 67
f 67 127 128
f 67 128 68
f 68 128 129
f 68 129 69
f 69 129 130
f 69 130 70
f 70 130 131
f 70 131 71
f 71 131 132
f 71 132 72
f 72 132 133
f 72 133 73
f 73 133 134
f 73 134 74
f 74 134 135
f 74 135 75
f 75 135 136
f 75 136 76
f 76 136 137
f 76 137 77
f 77 137 138
f 77 138 78
f 78 138 139
f 78 139 79
f 79 139 140
f 79 140 80
f 80 140 141
f 80 141 81
f 81 141 142
f 81 142 82
f 82 142 143
f 82 143 83
f 83 143 144
f 83 144 84
f 84 144 145
f 84 145 85
f 85 145 146
f 85 146 86
f 86 146 147
f 86 147 87
f 87 147 148
f 87 148 88
f 88 148 149
f 88 149 89
f 89 149 150
f 89 150 90
f 90 150 151
f 90 151 91
f 91 151 152
f 91 152 92
f 92 152 153
f 92 153 93
f 93 153 154
f 93 154 94
f 94 154 155
f 94 155 95
f 95 155 156
f 95 156 96
f 96 156 157
f 96 157 97
f 97 157 158
f 97 158 98
f 98 158 159
f 98 159 99
f 99 159 160
f 99 160 100
f 100 160 161
f 100 161 101
f 101 161 162
f 101 162 102
f 102 162 163
f 102 163 103
f 103 163 164
f 103 164 104
f 104 164 165
f 104 165 105
f 105 165 166
f 105 166 106
f 106 166 167
f 106 167 107
f 107 167 168
f 107 168 108
f 108 168 169
f 108 169 109
f 109 169 170
f 109 170 110
f 110 170 171
f 110 171 111
f 111 171 172
f 111 172 112
f 112 172 173
f 112 173 113
f 113 173 174
f 113 174 114
f 114 174 175
f 114 175 115
f 115 175 176
f 115 176 116
f 116 176 177
f 116 177 117
f 117 177 178
f 117 178 118
f 118 178 179
f 118 179 119
f 119 179 180
f 119 180 120
f 120 180 181
f 120 181 121
f 121 181 122
f 121 122 62
f 122 182 183
f 122 183 123
f 123 183 184
f 123 184 124
f 124 184 185
f 124 185 125
f 125 185 186
f 125 186 126
f 126 186 187
f 126 187 127
f 127 187 188
f 127 188 128
f 128 188 189
f 128 189 129
f 129 189 190
f 129 190 130
f 130 190 191
f 130 191 131
f 131 191 192
f 131 192 132
f 132 192 193
f 132 193 133
f 133 193 194
f 133 194 134
f 134 194 195
f 134 195 135
f 135 195 196
f 135 196 136
f 136 196 197
f 136 197 137
f 137 197 198
f 137 198 138
f 138 198 199
f 138 199 139
f 139 199 200
f 139 200 140
f 140 200 201
f 140 201 141
f 141 201 202
f 141 202 142
f 142 202 203
f 142 203 143
f 143 203 204
f 143 204 144
f 144 204 205
f 144 205 145
f 145 205 206
f 145 206 146
f 146 206 207
f 146 207 147
f 147 207 208
f 147 208 148
f 148 208 209
f 148 209 149
f 149 209 210
f 149 210 150
f 150 210 211
f 150 211 151
f 151 211 212
f 151 212 152
f 152 212 213
f 152 213 153
f 153 213 214
f 153 214 154
f 154 214 215
f 154 215 155
f 155 215 216
f 155 216 156
f 156 216 217
f 156 217 157
f 157 217 218
f 157 218 158
f 158 218 219
f 158 219 159
f 159 219 220
f 159 220 160
f 160 220 221
f 160 221 161
f 161 221 222
f 161 222 162
f 162 222 223
f 162 223 163
f 163 223 224
f 163 224 164
f 164 224 225
f 164 225 165
f 165 225 226
f 165 226 166
f 166 226 227
f 166 227 167
f 167 227 228
f 167 228 168
f 168 228 229
f 168 229 169
f 169 229 230
f 169 230 170
f 170 230 231
f 170 231 171
f 171 231 232
f 171 232 172
f 172 232 233
f 172 233 173
f 173 233 234
f 173 234 174
f 174 234 235
f 174 235 175
f 175 235 236
f 175 236 176
f 176 236 237
f 176 237 177
f 177 237 238
f 177 238 178
f 178 238 239
f 178 239 179
f 179 239 240
f 179 240 180
f 180 240 241
f 180 241 181
f 181 241 182
f 181 182 122
f 182 242 243
f 182 243 183
f 183 243 244
f 183 244 184
f 184 244 245
f 184 245 185
f 185 245 246
f 185 246 186
f 186 246 247
f 186 247 187
f 187 247 248
f 187 248 188
f 188 248 249
f 188 249 189
f 189 249 250
f 189 250 190
f 190 250 251
f 190 251 191
f 191 251 252
f 191 252 192
f 192 252 253
f 192 253 193
f 193 253 254
f 193 254 194
f 194 254 255
f 194 255 195
f 195 255 256
f 195 256 196
f 196 256 257
f 196 257 197
f 197 257 258
f 197 258 198
f 198 258 259
f 198 259 199
f 199 259 260
f 199 260 200
f 200 260 261
f 200 261 201
f 201 261 262
f 201 262 202
f 202 262 263
f 202 263 203
f 203 263 264
f 203 264 204
f 204 264 265
f 204 265 205
f 205 265 266
f 205 266 206
f 206 266 267
f 206 267 207
f 207 267 268
f 207 268 208
f 208 268 269
f 208 269 209
f 209 269 270
f 209 270 210
f 210 270 271
f 210 271 211
f 211 271 272
f 211 272 212
f 212 272 273
f 212 273 213
f 213 273 274
f 213 274 214
f 214 274 275
f 214 275 215
f 215 275 276
f 215 276 216
f 216 276 277
f 216 277 217
f 217 277 278
f 217 278 218
f 218 278 279
f 218 279 219
f 219 279 280
f 219 280 220
f 220 280 281
f 220 281 221
f 221 281 282
f 221 282 222
f 222 282 283
f 222 283 223
f 223 283 284
f 223 284 224
f 224 284 285
f 224 285 225
f 225 285 286
f 225 286 226
f 226 286 287
f 226 287 227
f 227 287 288
f 227 288 228
f 228 288 289
f 228 289 229
f 229 289 290
f 229 290 230
f 230 290 291
f 230 291 231
f 231 291 292
f 231 292 232
f 232 292 293
f 232 293 233
f 233 293 294
f 233 294 234
f 234 294 295
f 234 295 235
f 235 295 296
f 235 296 236
f 236 296 297
f 236 297 237
f 237 297 298
f 237 298 238
f 238 298 299
f 238 299 239
f 239 299 300
f 239 300 240
f 240 300 301
f 240 301 241
f 241 301 242
f 241 242 182
f 242 302 303
f 242 303 243
f 243 303 304
f 243 304 244
f 244 304 305
f 244 305 245
f 245 305 306
f 245 306 246
f 246 306 307
f 246 307 247
f 247 307 308
f 247 308 248
f 248 308 309
f 248 309 249
f 249 309 310
f 249 310 250
f 250 310 311
f 250 311 251
f 251 311 312
f 251 312 252
f 252 312 313
f 252 313 253
f 253 313 314
f 253 314 254
f 254 314 315
f 254 315 255
f 255 315 316
f 255 316 256
f 256 316 317
f 256 317 257
f 257 317 318
f 257 318 258
f 258 318 319
f 258 319 259
f 259 319 320
f 259 320 260
f 260 320 321
f 260 321 261
f 261 321 322
f 261 322 262
f 262 322 323
f 262 323 263
f 263 323 324
f 263 324 264
f 264 324 325
f 264 325 265
f 265 325 326
f 265 326 266
f 266 326 327
f 266 327 267
f 267 327 328
f 267 328 268
f 268 328 329
f 268 329 269
f 269 329 330
f 269 330 270
f 270 330 331
f 270 331 271
f 271 331 332
f 271 332 272
f 272 332 333
f 272 333 273
f 273 333 334
f 273 334 274
f 274 334 335
f 274 335 275
f 275 335 336
f 275 336 276
f 276 336 337
f 276 337 277
f 277 337 338
f 277 338 278
f 278 338 339
f 278 339 279
f 279 339 340
f 279 340 280
f 280 340 341
f 280 341 281
f 281 341 342
f 281 342 282
f 282 342 343
f 282 343 283
f 283 343 344
f 283 344 284
f 284 344 345
f 284 345 285
f 285 345 346
f 285 346 286
f 286 346 347
f 286 347 287
f 287 347 348
f 287 348 288
f 288 348 349
f 288 349 289
f 289 349 350
f 289 350 290
f 290 350 351
f 290 351 291
f 291 351 352
f 291 352 292
f 292 352 353
f 292 353 293
f 293 353 354
f 293 354 294
f 294 354 355
f 294 355 295
f 295 355 356
f 295 356 296
f 296 356 357
f 296 357 297
f 297 357 358
f 297 358 298
f 298 358 359
f 298 359 299
f 299 359 360
f 299 360 300
f 300 360 361
f 300 361 301
f 301 361 302
f 301 302 242
f 302 362 363
f 302 363 303
f 303 363 364
f 303 364 304
f 304 364 365
f 304 365 305
f 305 365 366
f 305 366 306
f 306 366 367
f 306 367 307
f 307 367 368
f 307 368 308
f 308 368 369
f 308 369 309
f 309 369 370
f 309 370 310
f 310 370 371
f 310 371 311
f 311 371 372
f 311 372 312
f 312 372 373
f 312 373 313
f 313 373 374
f 313 374 314
f 314 374 375
f 314 375 315
f 315 375 376
f 315 376 316
f 316 376 377
f 316 377 317
f 317 377 378
f 317 378 318
f 318 378 379
f 318 379 319
f 319 379 380
f 319 380 320
f 320 380 381
f 320 381 321
f 321 381 382
f 321 382 322
f 322 382 383
f 322 383 323
f 323 383 384
f 323 384 324
f 324 384 385
f 324 385 325
f 325 385 386
f 325 386 326
f 326 386 387
f 326 387 327
f 327 387 388
f 327 388 328
f 328 388 389
f 328 389 329
f 329 389 390
f 329 390 330
f 330 390 391
f 330 391 331
f 331 391 392
f 331 392 332
f 332 392 393
f 332 393 333
f 333 393 394
f 333 394 334
f 334 394 395
f 334 395 335
f 335 395 396
f 335 396 336
f 336 396 397
f 336 397 337
f 337 397 398
f 337 398 338
f 338 398 399
f 338 399 339
f 339 399 400
f 339 400 340
f 340 400 401
f 340 401 341
f 341 401 402
f 341 402 342
f 342 402 403
f 342 403 343
f 343 403 404
f 343 404 344
f 344 404 405
f 344 405 345
f 345 405 406
f 345 406 346
f 346 406 407
f 346 407 347
f 347 407 408
f 347 408 348
f 348 408 409
f 348 409 349
f 349 409 410
f 349 410 350
f 350 410 411
f 350 411 351
f 351 411 412
f 351 412 352
f 352 412 413
f 352 413 353
f 353 413 414
f 353 414 354
f 354 414 415
f 354 415 355
f 355 415 416
f 355 416 356
f 356 416 417
f 356 417 357
f 357 417 418
f 357 418 358
f 358 418 419
f 358 419 359
f 359 419 420
f 359 420 360
f 360 420 421
f 360 421 361
f 361 421 362
f 361 362 302
f 362 422 423
f 362 423 363
f 363 423 424
f 363 424 364
f 364 424 425
f 364 425 365
f 365 425 426
f 365 426 366
f 366 426 427
f 366 427 367
f 367 427 428
f 367 428 368
f 368 428 429
f 368 429 369
f 369 429 430
f 369 430 370
f 370 430 431
f 370 431 371
f 371 431 432
f 371 432 372
f 372 432 433
f 372 433 373
f 373 433 434
f 373 434 374
f 374 434 435
f 374 435 375
f 375 435 436
f 375 436 376
f 376 436 437
f 376 437 377
f 377 437 438
f 377 438 378
f 378 438 439
f 378 439 379
f 379 439 440
f 379 440 380
f 380 440 441
f 380 441 381
f 381 441 442
f 381 442 382
f 382 442 443
f 382 443 383
f 383 443 444
f 383 444 384
f 384 444 445
f 384 445 385
f 385 445 446
f 385 446 386
f 386 446 447
f 386 447 387
f 387 447 448
f 387 448 388
f 388 448 449
f 388 449 389
f 389 449 450
f 389 450 390
f 390 450 451
f 390 451 391
f 391 451 452
f 391 452 392
f 392 452 453
f 392 453 393
f 393 453 454
f 393 454 394
f 394 454 455
f 394 455 395
f 395 455 456
f 395 456 396
f 396 456 457
f 396 457 397
f 397 457 458
f 397 458 398
f 398 458 459
f 398 459 399
f 399 459 460
f 399 460 400
f 400 460 461
f 400 461 401
f 401 461 462
f 401 462 402
f 402 462 463
f 402 463 403
f 403 463 464
f 403 464 404
f 404 464 465
f 404 465 405
f 405 465 466
f 405 466 406
f 406 466 467
f 406 467 407
f 407 467 468
f 407 468 408
f 408 468 469
f 408 469 409
f 409 469 470
f 409 470 410
f 410 470 471
f 410 471 411
f 411 471 472
f 411 472 412
f 412 472 473
f 412 473 413
f 413 473 474
f 413 474 414
f 414 474 475
f 414 475 415
f 415 475 476
f 415 476 416
f 416 476 477
f 416 477 417
f 417 477 478
f 417 478 418
f 418 478 479
f 418 479 419
f 419 479 480
f 419 480 420
f 420 480 481
f 420 481 421
f 421 481 422
f 421 422 362
f 422 482 483
f 422 483 423
f 423 483 484
f 423 484 424
f 424 484 485
f 424 485 425
f 425 485 486
f 425 486 426
f 426 486 487
f 426 487 427
f 427 487 488
f 427 488 428
f 428 488 489
f 428 489 429
f 429 489 490
f 429 490 430
f 430 490 491
f 430 491 431
f 431 491 492
f 431 492 432
f 432 492 493
f 432 493 433
f 433 493 494
f 433 494 434
f 434 494 495
f 434 495 435
f 435 495 496
f 435 496 436
f 436 496 497
f 436 497 437
f 437 497 498
f 437 498 438
f 438 498 499
f 438 499 439
f 439 499 500
f 439 500 440
f 440 500 501
f 440 501 441
f 441 501 502
f 441 502 442
f 442 502 503
f 442 503 443
f 443 503 504
f 443 504 444
f 444 504 505
f 444 505 445
f 445 505 506
f 445 506 446
f 446 506 507
f 446 507 447
f 447 507 508
f 447 508 448
f 448 508 509
f 448 509 449
f 449 509 510
f 449 510 450
f 450 510 511
f 450 511 451
f 451 511 512
f 451 512 452
f 452 512 513
f 452 513 453
f 453 513 514
f 453 514 454
f 454 514 515
f 454 515 455
f 455 515 516
f 455 516 456
f 456 516 517
f 456 517 457
f 457 517 518
f 457 518 458
f 458 518 519
f 458 519 459
f 459 519 520
f 459 520 460
f 460 520 521
f 460 521 461
f 461 521 522
f 461 522 462
f 462 522 523
f 462 523 463
f 463 523 524
f 463 524 464
f 464 524 525
f 464 525 465
f 465 525 526
f 465 526 466
f 466 526 527
f 466 527 467
f 467 527 528
f 467 528 468
f 468 528 529
f 468 529 469
f 469 529 530
f 469 530 470
f 470 530 531
f 470 531 471
f 471 531 532
f 471 532 472
f 472 532 533
f 472 533 473
f 473 533 534
f 473 534 474
f 474 534 535
f 474 535 475
f 475 535 536
f 475 536 476
f 476 536 537
f 476 537 477
f 477 537 538
f 477 538 478
f 478 538 539
f 478 539 479
f 479 539 540
f 479 540 480
f 480 540 541
f 480 541 481
f 481 541 482
f 481 482 422
f 482 542 543
f 482 543 483
f 483 543 544
f 483 544 484
f 484 544 545
f 484 545 485
f 485 545 546
f 485 546 486
f 486 546 547
f 486 547 487
f 487 547 548
f 487 548 488
f 488 548 549
f 488 549 489
f 489 549 550
f 489 550 490
f 490 550 551
f 490 551 491
f 491 551 552
f 491 552 492
f 492 552 553
f 492 553 493
f 493 553 554
f 493 554 494
f 494 554 555
f 494 555 495
f 495 555 556
f 495 556 496
f 496 556 557
f 496 557 497
f 497 557 558
f 497 558 498
f 498 558 559
f 498 559 499
f 499 559 560
f 499 560 500
f 500 560 561
f 500 561 501
f 501 561 562
f 501 562 502
f 502 562 563
f 502 563 503
f 503 563 564
f 503 564 504
f 504 564 565
f 504 565 505
f 505 565 566
f 505 566 506
f 506 566 567
f 506 567 507
f 507 567 568
f 507 568 508
f 508 568 569
f 508 569 509
f 509 569 570
f 509 570 510
f 510 570 571
f 510 571 511
f 511 571 572
f 511 572 512
f 512 572 573
f 512 573 513
f 513 573 574
f 513 574 514
f 514 574 575
f 514 575 515
f 515 575 576
f 515 576 516
f 516 576 577
f 516 577 517
f 517 577 578
f 517 578 518
f 518 578 579
f 518 579 519
f 519 579 580
f 519 580 520
f 520 580 581
f 520 581 521
f 521 581 582
f 521 582 522
f 522 582 583
f 522 583 523
f 523 583 584
f 523 584 524
f 524 584 585
f 524 585 525
f 525 585 586
f 525 586 526
f 526 586 587
f 526 587 527
f 527 587 588
f 527 588 528
f 528 588 589
f 528 589 529
f 529 589 590
f 529 590 530
f 530 590 591
f 530 591 531
f 531 591 592
f 531 592 532
f 532 592 593
f 532 593 533
f 533 593 594
f 533 594 534
f 534 594 595
f 534 595 535
f 535 595 596
f 535 596 536
f 536 596 597
f 536 597 537
f 537 597 598
f 537 598 538
f 538 598 599
f 538 599 539
f 539 599 600
f 539 600 540
f 540 600 601
f 540 601 541
f 541 601 542
f 541 542 482
